/* XPM */
static char *_7e87db310a74079d9959f606afb69ddfejIC8A254BR7aPu[] = {
/* columns rows colors chars-per-pixel */
"32 32 256 2 ",
"   c #372A17",
".  c #382B18",
"X  c #392C19",
"o  c #3A2D1A",
"O  c #3B2E1B",
"+  c #3C2F1C",
"@  c #3D301D",
"#  c #3E311E",
"$  c #3F321F",
"%  c #403320",
"&  c #413421",
"*  c #423522",
"=  c #433623",
"-  c #453825",
";  c #463926",
":  c #4C3D26",
">  c #59472C",
",  c #5E4B2F",
"<  c #624D2C",
"1  c #634E2D",
"2  c #644F2E",
"3  c #65502F",
"4  c #665130",
"5  c #675231",
"6  c #685332",
"7  c #695433",
"8  c #6A5534",
"9  c #6B5635",
"0  c #6C5736",
"q  c #6D5837",
"w  c #6E5938",
"e  c #6F5A39",
"r  c #705B3A",
"t  c #7C623E",
"y  c #8F6F40",
"u  c #917142",
"i  c #927243",
"p  c #937344",
"a  c #947445",
"s  c #957546",
"d  c #967647",
"f  c #977748",
"g  c #987849",
"h  c #99794A",
"j  c #9A7A4B",
"k  c #9B7B4C",
"l  c #9C7C4D",
"z  c #9D7D4E",
"x  c #9F7F50",
"c  c black",
"v  c black",
"b  c black",
"n  c black",
"m  c black",
"M  c black",
"N  c black",
"B  c black",
"V  c black",
"C  c black",
"Z  c black",
"A  c black",
"S  c black",
"D  c black",
"F  c black",
"G  c black",
"H  c black",
"J  c black",
"K  c black",
"L  c black",
"P  c black",
"I  c black",
"U  c black",
"Y  c black",
"T  c black",
"R  c black",
"E  c black",
"W  c black",
"Q  c black",
"!  c black",
"~  c black",
"^  c black",
"/  c black",
"(  c black",
")  c black",
"_  c black",
"`  c black",
"'  c black",
"]  c black",
"[  c black",
"{  c black",
"}  c black",
"|  c black",
" . c black",
".. c black",
"X. c black",
"o. c black",
"O. c black",
"+. c black",
"@. c black",
"#. c black",
"$. c black",
"%. c black",
"&. c black",
"*. c black",
"=. c black",
"-. c black",
";. c black",
":. c black",
">. c black",
",. c black",
"<. c black",
"1. c black",
"2. c black",
"3. c black",
"4. c black",
"5. c black",
"6. c black",
"7. c black",
"8. c black",
"9. c black",
"0. c black",
"q. c black",
"w. c black",
"e. c black",
"r. c black",
"t. c black",
"y. c black",
"u. c black",
"i. c black",
"p. c black",
"a. c black",
"s. c black",
"d. c black",
"f. c black",
"g. c black",
"h. c black",
"j. c black",
"k. c black",
"l. c black",
"z. c black",
"x. c black",
"c. c black",
"v. c black",
"b. c black",
"n. c black",
"m. c black",
"M. c black",
"N. c black",
"B. c black",
"V. c black",
"C. c black",
"Z. c black",
"A. c black",
"S. c black",
"D. c black",
"F. c black",
"G. c black",
"H. c black",
"J. c black",
"K. c black",
"L. c black",
"P. c black",
"I. c black",
"U. c black",
"Y. c black",
"T. c black",
"R. c black",
"E. c black",
"W. c black",
"Q. c black",
"!. c black",
"~. c black",
"^. c black",
"/. c black",
"(. c black",
"). c black",
"_. c black",
"`. c black",
"'. c black",
"]. c black",
"[. c black",
"{. c black",
"}. c black",
"|. c black",
" X c black",
".X c black",
"XX c black",
"oX c black",
"OX c black",
"+X c black",
"@X c black",
"#X c black",
"$X c black",
"%X c black",
"&X c black",
"*X c black",
"=X c black",
"-X c black",
";X c black",
":X c black",
">X c black",
",X c black",
"<X c black",
"1X c black",
"2X c black",
"3X c black",
"4X c black",
"5X c black",
"6X c black",
"7X c black",
"8X c black",
"9X c black",
"0X c black",
"qX c black",
"wX c black",
"eX c black",
"rX c black",
"tX c black",
"yX c black",
"uX c black",
"iX c black",
"pX c black",
"aX c black",
"sX c black",
"dX c black",
"fX c black",
"gX c black",
"hX c black",
"jX c black",
"kX c black",
"lX c black",
"zX c black",
"xX c black",
"cX c black",
"vX c black",
"bX c black",
"nX c black",
"mX c black",
"MX c black",
"NX c black",
"BX c black",
"VX c black",
"CX c black",
"ZX c black",
"AX c black",
"SX c black",
"DX c black",
"FX c black",
"GX c black",
"HX c black",
"JX c black",
"KX c black",
"LX c black",
"PX c black",
"IX c black",
"UX c black",
/* pixels */
"; ; 7 7 0 0 k k @ @ q q s s & & 4 4 6 6 5 5 t t q q t t 7 7 l l ",
"; ; 7 7 0 0 k k @ @ q q s s & & 4 4 6 6 5 5 t t q q t t 7 7 l l ",
"$ $ 3 3 e e . . $ $ g g & & 4 4 h h @ @ 6 6 j j : : t t : : s s ",
"$ $ 3 3 e e . . $ $ g g & & 4 4 h h @ @ 6 6 j j : : t t : : s s ",
"o o , , 2 2 & & 6 6 h h # # 5 5 g g + + 5 5 t t : : t t : : h h ",
"o o , , 2 2 & & 6 6 h h # # 5 5 g g + + 5 5 t t : : t t : : h h ",
"q q - - 1 1 % % t t t t # # 6 6 g g + + 6 6 g g @ @ l l * * t t ",
"q q - - 1 1 % % t t t t # # 6 6 g g + + 6 6 g g @ @ l l * * t t ",
"8 8 & & 0 0 5 5 t t t t 0 0 5 5 w w * * 8 8 j j @ @ j j + + t t ",
"8 8 & & 0 0 5 5 t t t t 0 0 5 5 w w * * 8 8 j j @ @ j j + + t t ",
"0 0 , , 0 0 4 4 j j 6 6 4 4 8 8 9 9 @ @ 7 7 y y # # t t % % 5 5 ",
"0 0 , , 0 0 4 4 j j 6 6 4 4 8 8 9 9 @ @ 7 7 y y # # t t % % 5 5 ",
"6 6 t t : : 0 0 f f < < 6 6 + + u u + + t t > >     t t # # w w ",
"6 6 t t : : 0 0 f f < < 6 6 + + u u + + t t > >     t t # # w w ",
"9 9 j j # # 9 9 k k @ @ j j & & h h o o t t : : 4 4 t t $ $ w w ",
"9 9 j j # # 9 9 k k @ @ j j & & h h o o t t : : 4 4 t t $ $ w w ",
"7 7 h h $ $ r r a a & & 7 7 % % 7 7 * * p p + + 0 0 9 9 $ $ t t ",
"7 7 h h $ $ r r a a & & 7 7 % % 7 7 * * p p + + 0 0 9 9 $ $ t t ",
"7 7 l l ; ; 5 5 q q a a * * 8 8 8 8 X X s s * * 9 9 s s & & t t ",
"7 7 l l ; ; 5 5 q q a a * * 8 8 8 8 X X s s * * 9 9 s s & & t t ",
"- - t t % % 8 8 5 5 d d o o 2 2 # # , , x x % % 8 8 k k = = s s ",
"- - t t % % 8 8 5 5 d d o o 2 2 # # , , x x % % 8 8 k k = = s s ",
"# # t t $ $ 5 5 e e j j * * j j . . , , z z @ @ 0 0 f f + + k k ",
"# # t t $ $ 5 5 e e j j * * j j . . , , z z @ @ 0 0 f f + + k k ",
"O O j j X X 4 4 9 9 j j . . 8 8 $ $ 3 3 f f + + 8 8 < < % % g g ",
"O O j j X X 4 4 9 9 j j . . 8 8 $ $ 3 3 f f + + 8 8 < < % % g g ",
"& & q q , , 0 0 6 6 t t : : w w q q 1 1 5 5 @ @ 8 8 a a l l o o ",
"& & q q , , 0 0 6 6 t t : : w w q q 1 1 5 5 @ @ 8 8 a a l l o o ",
"o o 5 5 f f % % 9 9 t t : : # # i i 6 6 g g O O 3 3 t t @ @ 5 5 ",
"o o 5 5 f f % % 9 9 t t : : # # i i 6 6 g g O O 3 3 t t @ @ 5 5 ",
", , 6 6 t t # # 2 2 7 7 6 6 % % 7 7 0 0 5 5     5 5 7 7 3 3 t t ",
", , 6 6 t t # # 2 2 7 7 6 6 % % 7 7 0 0 5 5     5 5 7 7 3 3 t t "
};
